<svg width="339" height="365" viewBox="0 0 339 365" fill="none" xmlns="http://www.w3.org/2000/svg">
<path d="M11.5063 185.142C19.9253 130.145 54.4431 62.5769 122.637 55.5058C122.637 55.5058 174.413 49.2205 225.452 58.7466C255.744 64.4002 282.306 81.23 299.113 105.419C315.921 129.607 321.535 159.102 314.721 187.221C310.296 205.485 307.305 224.388 308.126 243.155C309.555 275.817 308.733 306.305 276.972 325.784C248.613 343.177 212.923 358.517 178.874 361.203C155.734 363.029 129.785 360.075 107.483 354.062C-6.17355 323.421 3.08737 240.139 11.5063 185.142Z" fill="#F4F7FA"/>
<path d="M116.756 288.555C89.1208 273.001 56.1369 249.248 31.2236 214.838C24.8657 206.057 -14.4107 151.81 5.65789 131.272C12.7271 124.038 21.1898 127.096 30.8105 117.588C42.2103 106.323 37.6254 94.8183 41.3522 74.7859C43.576 62.8327 50.0838 27.8514 76.8097 21.7031C92.7803 18.0292 115.248 24.8175 128.342 36.9834C147.548 54.828 142.822 80.745 134.068 124.459C126.308 163.21 118.941 169.599 113.84 197.601C110.054 218.383 107.937 248.764 116.756 288.555Z" fill="#B3CEE0"/>
<g style="mix-blend-mode:soft-light" opacity="0.5">
<path d="M119.649 292.226C125.998 300.881 133.124 308.94 140.938 316.303C164.994 338.988 194.922 355.194 229.89 364.471L230.307 362.903C195.602 353.696 165.909 337.621 142.052 315.124C56.6871 234.626 85.0911 101.672 95.8305 62.8421C101.921 40.8217 115.053 20.0887 134.862 1.21977L133.742 0.0458984C113.717 19.1203 100.436 40.1028 94.2662 62.41C85.4216 94.3889 76.2788 143.417 82.9491 195.381C87.7958 233.139 100.107 265.584 119.649 292.226Z" fill="white"/>
</g>
<g style="mix-blend-mode:soft-light" opacity="0.5">
<path d="M82.564 129.052L83.2439 128.787C83.7721 128.582 136.224 107.712 149.268 59.0888L147.7 58.6689C135.668 103.52 89.4804 124.399 83.3302 126.998C46.8238 55.8395 72.1767 12.8973 80.8429 1.40728C81.0833 1.08838 81.2292 0.885351 81.2736 0.806088L79.8654 0C79.8204 0.070699 79.7104 0.214093 79.5467 0.431219C70.7093 12.1482 44.7853 56.0054 82.2289 128.404L82.564 129.052Z" fill="white"/>
</g>
<g style="mix-blend-mode:soft-light" opacity="0.5">
<path d="M21.2589 150.616C31.8006 164.988 50.5017 182.295 83.3504 195.168L83.7542 195.326L84.1101 195.078C84.4621 194.834 119.551 170.055 142.394 122.16L165.409 73.904L163.944 73.2061L140.929 121.462C119.5 166.391 87.2419 190.792 83.5321 193.497C45.0719 178.326 26.3643 157.065 17.4354 141.874C7.76108 125.412 7.1971 112.421 7.19251 112.292L5.57031 112.349C5.58973 112.894 6.15525 125.882 16.036 142.695C17.6417 145.422 19.3849 148.066 21.2589 150.616V150.616Z" fill="white"/>
</g>
<path d="M136.643 288.289C149.918 278.074 167.774 261.124 177.595 235.65C190.476 202.241 178.22 183.526 185.481 125.544C190.071 88.8817 193.645 63.3424 213.533 51.4378C229.118 42.1087 252.857 42.2698 266.162 53.6272C277.225 63.0706 282.371 81.3603 283.237 94.1413C283.943 104.558 281.843 111.866 287.227 117.843C292.731 123.951 299.56 121.464 304.81 126.103C315.459 135.51 306.138 162.316 304.632 166.649C287.874 214.841 239.103 243.685 217.677 256.01C199.962 266.201 172.804 279.435 136.643 288.289Z" fill="#CFE0ED"/>
<g style="mix-blend-mode:soft-light" opacity="0.5">
<path d="M146.981 294.096L146.697 293.054C177.419 284.7 216.505 267.726 228.245 234.302C232.562 222.013 232.745 208.848 232.997 190.627C233.198 176.077 232.028 165.747 230.995 156.633C229.643 144.705 228.575 135.284 231.259 122.021C233.982 108.563 239.788 95.4895 248.516 83.1621L249.399 83.7858C240.758 95.9898 235.011 108.926 232.318 122.235C229.669 135.331 230.728 144.678 232.069 156.511C233.105 165.657 234.28 176.024 234.078 190.64C233.833 208.276 233.641 222.204 229.265 234.66C223.668 250.593 211.316 264.341 192.549 275.522C179.881 283.07 164.55 289.319 146.981 294.096Z" fill="white"/>
</g>
<g style="mix-blend-mode:soft-light" opacity="0.5">
<path d="M233.705 180.58L233.171 180.283C233.079 180.232 223.856 175.022 215.196 164.181C207.203 154.175 198.051 137.179 199.837 113.034L200.915 113.114C199.155 136.91 208.169 153.652 216.04 163.507C223.39 172.708 231.118 177.771 233.172 179.028C243.633 153.729 259.252 138.74 270.554 130.605C282.908 121.714 292.942 118.853 293.042 118.825L293.333 119.865C293.234 119.892 283.349 122.717 271.144 131.512C259.885 139.625 244.29 154.625 233.935 180.015L233.705 180.58Z" fill="white"/>
</g>
<g style="mix-blend-mode:soft-light" opacity="0.5">
<path d="M231.911 219.852L231.722 219.508C231.641 219.36 223.493 204.605 212.429 191.411C201.441 178.308 173.359 171.383 173.076 171.315L173.331 170.265C174.498 170.548 202.043 177.345 213.257 190.717C223.446 202.867 231.174 216.329 232.476 218.642C263.232 212.301 301.927 145.601 302.316 144.925L303.253 145.463C303.155 145.634 293.285 162.718 279.699 180.311C261.408 203.997 245.459 217.276 232.297 219.779L231.911 219.852Z" fill="white"/>
</g>
<g style="mix-blend-mode:soft-light" opacity="0.5">
<path d="M197.24 272.456L197.865 271.58C206.787 259.086 207.032 245.073 198.595 229.928C192.276 218.585 183.2 210.855 183.109 210.778L183.807 209.953C183.899 210.031 193.126 217.889 199.54 229.403C207.875 244.365 207.809 258.831 199.368 271.312C203.058 271.135 215.884 270.267 232.162 266.317C249.943 262.003 275.599 253.025 296.85 234.753L338.162 199.23L338.867 200.049L297.555 235.571C276.133 253.991 250.293 263.032 232.389 267.373C212.996 272.076 198.461 272.431 198.317 272.434L197.24 272.456Z" fill="white"/>
</g>
<path d="M198.15 297.556C219.121 300.069 246.194 300.282 273.13 291.596C280.004 289.379 322.469 275.687 319.778 256.762C318.831 250.096 313.08 248.411 311.658 239.52C309.972 228.986 316.966 224.61 322.854 212.384C326.368 205.088 336.651 183.739 324.717 169.926C317.586 161.672 302.843 156.482 291.018 157.868C273.673 159.9 266.002 175.68 253.487 202.603C242.392 226.47 243.832 232.799 235.542 249.846C229.39 262.498 218.561 279.651 198.15 297.556Z" fill="#FFC5A4"/>
<g style="mix-blend-mode:soft-light" opacity="0.5">
<path d="M195.151 298.391C188.331 300.543 181.329 302.07 174.232 302.952C152.375 305.676 129.916 302.612 107.479 293.843L107.872 292.837C130.14 301.54 152.422 304.582 174.098 301.88C251.659 292.212 288.77 209.625 298.296 184.544C303.698 170.321 304.811 154.02 301.603 136.094L302.667 135.904C305.91 154.025 304.779 170.519 299.307 184.927C291.462 205.583 277.061 235.514 253.01 260.804C235.535 279.179 216.141 291.765 195.151 298.391Z" fill="white"/>
</g>
<g style="mix-blend-mode:soft-light" opacity="0.5">
<path d="M279.34 225.325L279.079 224.916C278.876 224.598 258.923 192.76 271.068 161.512L272.075 161.903C260.872 190.727 277.458 220.106 279.738 223.92C327.375 200.054 330.672 167.018 330.542 157.438C330.539 157.172 330.54 157.005 330.548 156.945L331.622 157.066C331.618 157.122 331.621 157.242 331.623 157.423C331.755 167.192 328.405 200.945 279.775 225.109L279.34 225.325Z" fill="white"/>
</g>
<g style="mix-blend-mode:soft-light" opacity="0.5">
<path d="M303.779 261.018C292.456 264.592 275.593 266.534 252.878 260.531L252.599 260.457L252.505 260.184C252.412 259.914 243.325 232.805 249.92 198.095L256.565 163.123L257.627 163.324L250.982 198.296C244.795 230.857 252.512 256.65 253.439 259.562C280.073 266.538 298.497 262.474 309.276 257.826C320.957 252.788 326.377 246.032 326.43 245.964L327.279 246.633C327.054 246.918 321.634 253.672 309.704 258.818C307.768 259.651 305.79 260.385 303.779 261.018V261.018Z" fill="white"/>
</g>
<g style="mix-blend-mode:soft-light" opacity="0.26">
<path d="M139.916 132.991C137.955 145.167 142.098 146.109 139.516 156.719C136.566 168.843 130.422 170.63 131.506 178.33C132.44 184.968 137.303 185.751 142.26 195.279C146.808 204.022 147.021 211.64 147.439 214.703C148.571 223.012 156.385 235.775 184.098 255.962C183.768 255.847 183.439 255.734 183.106 255.615C169.431 247.811 160.309 239.386 154.118 232.329C147.304 224.561 146.977 221.805 134.321 206.837C121.356 191.503 117.37 189.276 113.756 180.408C112.138 176.438 106.639 162.947 111.365 149.223C115.37 137.592 123.114 136.268 124.069 124.998C124.676 117.834 121.718 116.356 122.834 107.722C123.781 100.397 126.285 98.5551 128.254 90.8864C129.2 87.1684 129.708 83.353 129.768 79.5176C131.916 80.9641 133.411 85.0832 134.077 86.9257C137.635 96.7567 136.451 106.923 130.196 128.105C124.813 146.335 120.192 157.427 121.587 158.088C122.634 158.584 126.288 152.848 126.686 152.224C132.227 143.528 133.837 135.08 134.865 128.228C138.07 106.843 135.885 99.0787 140.807 96.5289C142.626 95.5866 144.891 95.6318 146.933 96.2873C147.788 99.6897 148.24 103.425 147.944 107.417C147.166 117.913 141.994 120.09 139.916 132.991Z" fill="white"/>
</g>
<path d="M64.9996 87.0203L229.841 82.2656L252.942 81.5992C259.961 81.3968 265.682 86.8157 265.682 93.7085V344.184C265.682 351.077 259.963 356.311 252.945 355.64L102.008 341.19L64.9596 337.648C59.125 337.09 54.4696 331.419 54.4696 325.184V98.6098C54.4696 92.3747 59.1648 87.1887 64.9996 87.0203Z" fill="#363636"/>
<path d="M51.4682 325.062C51.4682 331.285 56.0447 336.779 61.8588 337.335L248.946 355.263C255.937 355.932 261.555 350.911 261.555 344.032V93.801C261.555 86.9225 255.928 81.5108 248.937 81.7125L61.8186 87.1144C56.0045 87.2821 51.4682 92.4619 51.4682 98.6847L51.4682 325.062Z" fill="#B8B7B6"/>
<path opacity="0.7" d="M252.928 89.8623V334.612C252.928 341.464 247.38 346.858 240.443 346.22L69.09 330.455C63.2336 329.917 58.9729 324.135 58.9729 317.889V94.7438L252.928 89.8623Z" fill="white"/>
<path d="M51.4682 98.6851V114.463L261.555 111.241V93.8015C261.555 86.9208 256.048 81.5078 249.054 81.7096L61.8937 87.1126C56.0775 87.2804 51.4682 92.4604 51.4682 98.6851Z" fill="#363636"/>
<path d="M237.288 96.8074C237.288 100.209 240.086 102.912 243.548 102.845C247.021 102.778 249.844 99.9508 249.844 96.5301C249.844 93.1094 247.021 90.4067 243.548 90.4932C240.086 90.5795 237.288 93.4063 237.288 96.8074Z" fill="white"/>
<path d="M218.606 97.2201C218.605 98.0198 218.764 98.8115 219.075 99.5485C219.386 100.286 219.841 100.953 220.415 101.511C220.989 102.069 221.669 102.507 222.415 102.798C223.161 103.09 223.958 103.229 224.759 103.207C228.172 103.141 230.947 100.339 230.947 96.9475C230.949 96.1449 230.788 95.3502 230.475 94.6108C230.162 93.8714 229.703 93.2025 229.126 92.6438C228.549 92.0852 227.864 91.6483 227.114 91.3593C226.364 91.0702 225.563 90.9348 224.759 90.9612C221.356 91.046 218.606 93.8481 218.606 97.2201Z" fill="white"/>
<path d="M200.241 97.6249C200.236 98.4143 200.39 99.1966 200.694 99.9256C200.997 100.655 201.444 101.315 202.008 101.869C202.572 102.423 203.242 102.858 203.977 103.148C204.713 103.439 205.499 103.58 206.29 103.562C209.645 103.497 212.373 100.719 212.373 97.3569C212.378 96.5645 212.223 95.7792 211.917 95.0479C211.611 94.3166 211.161 93.6543 210.594 93.1003C210.026 92.5463 209.352 92.1121 208.613 91.8234C207.873 91.5348 207.083 91.3977 206.29 91.4204C202.945 91.5037 200.241 94.2814 200.241 97.6249Z" fill="white"/>
<g opacity="0.15">
<path opacity="0.15" d="M98.6949 340.872L249.005 355.273C255.999 355.943 261.553 350.714 261.553 343.833V93.8005C261.553 86.9198 256.046 81.5068 249.052 81.7086L226.069 82.3726C226.657 85.0938 227.203 87.855 227.66 90.6565C227.721 91.0065 227.786 91.3615 227.843 91.7119C228.343 94.8934 228.763 98.1201 229.067 101.378C229.394 104.858 229.602 108.374 229.663 111.912C229.977 129.472 226.8 147.548 217.624 164.336C195.838 204.197 157.771 205.099 128.356 240.802C114.354 257.797 100.183 285.301 98.8063 332.956C98.7276 335.503 98.6908 337.795 98.6949 340.872Z" fill="white"/>
</g>
<g style="mix-blend-mode:multiply">
<g style="mix-blend-mode:multiply" opacity="0.3">
<g opacity="0.3">
<path d="M72.2249 129.346L231.087 128.11C233.116 128.091 235.12 128.562 236.928 129.483C240.985 131.547 243.766 135.729 243.766 140.556V177.026C243.766 183.942 238.059 189.454 231.087 189.312L100.892 186.666L72.2249 186.084C66.2691 185.963 61.4492 180.705 61.4492 174.365V140.93C61.4492 134.589 66.269 129.392 72.2249 129.346Z" fill="#040404" style="mix-blend-mode:multiply"/>
</g>
</g>
<g style="mix-blend-mode:multiply" opacity="0.3">
<g opacity="0.3">
<path d="M72.2249 270.701L231.087 280.587C233.146 280.72 235.146 281.33 236.928 282.369C240.985 284.717 243.766 289.094 243.766 293.92V330.391C243.766 337.307 238.059 342.42 231.087 341.79L100.892 330.028L72.2249 327.439C66.2691 326.901 61.4493 321.306 61.4493 314.965V281.53C61.4492 275.189 66.2691 270.33 72.2249 270.701Z" fill="#040404" style="mix-blend-mode:multiply"/>
</g>
</g>
<g style="mix-blend-mode:multiply" opacity="0.3">
<g opacity="0.3">
<path d="M72.2249 199.809L231.087 204.118C233.132 204.174 235.134 204.715 236.928 205.695C240.985 207.9 243.766 212.18 243.766 217.006V253.476C243.766 260.393 238.059 265.706 231.087 265.321L100.892 258.131L72.2249 256.548C66.2691 256.219 61.4493 250.793 61.4493 244.452V211.017C61.4492 204.677 66.2691 199.648 72.2249 199.809Z" fill="#040404" style="mix-blend-mode:multiply"/>
</g>
</g>
</g>
<path d="M55.0982 134.554V167.883C55.0982 174.204 59.8878 179.429 65.8057 179.53L223.619 182.234C230.544 182.353 236.211 176.841 236.211 169.949V133.604C236.205 131.965 235.874 130.343 235.237 128.833C234.6 127.322 233.669 125.952 232.498 124.803C231.327 123.653 229.94 122.746 228.416 122.135C226.892 121.524 225.261 121.22 223.619 121.241L65.8057 122.973C59.8878 123.037 55.0982 128.233 55.0982 134.554Z" fill="#D8DEE8"/>
<path d="M57.4698 134.395C57.4698 128.886 61.5463 124.376 66.7044 124.323L223.968 122.704C229.996 122.642 234.918 127.452 234.918 133.449V169.154C234.918 175.15 229.948 179.931 223.921 179.835L66.7314 177.317C61.5732 177.234 57.4699 172.703 57.4699 167.195L57.4698 134.395Z" fill="white"/>
<path d="M168.479 144.158L165.364 150.188L158.464 151.043C158.299 151.06 158.143 151.124 158.014 151.227C157.885 151.33 157.788 151.468 157.736 151.625C157.683 151.781 157.677 151.949 157.717 152.109C157.757 152.269 157.843 152.414 157.963 152.527L162.943 157.326L161.763 163.939C161.636 164.652 162.415 165.223 163.083 164.904L169.305 161.933L175.601 165.28C176.285 165.643 177.087 165.113 176.956 164.381L175.744 157.618L180.894 152.948C181.453 152.441 181.145 151.534 180.372 151.414L173.275 150.315L170.132 144.175C169.794 143.514 168.817 143.505 168.479 144.158Z" fill="#EE6E23"/>
<path d="M142.597 143.893L139.632 149.776L133.062 150.614C132.904 150.634 132.754 150.699 132.631 150.801C132.508 150.902 132.416 151.036 132.367 151.188C132.317 151.339 132.311 151.502 132.35 151.656C132.389 151.811 132.47 151.952 132.586 152.062L137.327 156.742L136.203 163.195C136.178 163.354 136.197 163.518 136.258 163.667C136.318 163.817 136.419 163.947 136.548 164.043C136.677 164.14 136.83 164.2 136.991 164.216C137.152 164.233 137.314 164.205 137.46 164.136L143.383 161.233L149.374 164.493C150.025 164.848 150.788 164.33 150.663 163.616L149.511 157.02L154.41 152.462C154.942 151.968 154.648 151.083 153.914 150.967L147.162 149.897L144.17 143.909C144.098 143.763 143.986 143.641 143.848 143.555C143.71 143.468 143.551 143.422 143.388 143.42C143.226 143.418 143.066 143.462 142.926 143.545C142.786 143.628 142.672 143.749 142.597 143.893Z" fill="#EE6E23"/>
<path d="M117.945 143.639L115.119 149.383L108.857 150.203C108.185 150.291 107.917 151.126 108.403 151.617L112.923 156.185L111.852 162.486C111.736 163.165 112.444 163.708 113.05 163.403L118.694 160.566L124.403 163.744C124.539 163.823 124.695 163.862 124.852 163.856C125.01 163.849 125.162 163.798 125.291 163.708C125.421 163.617 125.521 163.492 125.581 163.347C125.641 163.201 125.659 163.042 125.631 162.887L124.533 156.45L129.199 151.999C129.313 151.887 129.393 151.746 129.431 151.592C129.468 151.437 129.462 151.275 129.413 151.124C129.364 150.973 129.274 150.838 129.153 150.735C129.032 150.631 128.884 150.564 128.727 150.54L122.295 149.498L119.444 143.654C119.378 143.513 119.273 143.393 119.141 143.308C119.009 143.224 118.856 143.178 118.7 143.177C118.543 143.175 118.389 143.218 118.256 143.299C118.123 143.381 118.015 143.499 117.945 143.639Z" fill="#EE6E23"/>
<path d="M94.4411 143.397L91.7449 149.01L85.769 149.813C85.1278 149.899 84.872 150.715 85.3357 151.194L89.6487 155.654L88.6271 161.81C88.5169 162.474 89.1919 163.004 89.7702 162.706L95.1556 159.93L100.6 163.031C100.732 163.106 100.883 163.143 101.035 163.135C101.187 163.128 101.333 163.077 101.457 162.988C101.58 162.9 101.676 162.778 101.731 162.637C101.787 162.496 101.801 162.342 101.772 162.193L100.725 155.907L105.175 151.559C105.283 151.449 105.36 151.313 105.396 151.163C105.432 151.014 105.427 150.857 105.381 150.71C105.334 150.564 105.249 150.432 105.133 150.331C105.017 150.229 104.876 150.161 104.724 150.134L98.59 149.119L95.8711 143.412C95.8099 143.275 95.7104 143.158 95.5845 143.075C95.4586 142.993 95.3115 142.948 95.1608 142.946C95.0102 142.945 94.8622 142.986 94.7346 143.066C94.607 143.146 94.5051 143.261 94.4411 143.397Z" fill="#EE6E23"/>
<path d="M72.0081 143.167L69.4329 148.652L63.7242 149.439C63.1116 149.524 62.8672 150.322 63.3102 150.79L67.4307 155.147L66.4547 161.164C66.3494 161.814 66.9942 162.331 67.5466 162.039L72.6904 159.323L77.8897 162.349C78.4547 162.678 79.1159 162.194 79.0078 161.53L78.0082 155.389L82.2567 151.138C82.7179 150.676 82.4633 149.853 81.8264 149.746L75.9701 148.757L73.3737 143.181C73.3176 143.047 73.2234 142.933 73.1029 142.852C72.9824 142.771 72.8408 142.727 72.6955 142.726C72.5503 142.724 72.4079 142.765 72.2857 142.843C72.1635 142.922 72.067 143.034 72.0081 143.167Z" fill="#F4F7FA"/>
<path d="M97.611 136.584C97.6178 137.182 97.8582 137.754 98.2811 138.178C98.704 138.603 99.2761 138.845 99.8756 138.855L176.737 138.625C178.025 138.621 179.02 137.56 179.02 136.253V135.126C179.02 133.818 178.077 132.762 176.789 132.77L99.821 133.213C98.6259 133.22 97.611 134.243 97.611 135.5V136.584Z" fill="#B3CEE0"/>
<path d="M206.436 171.465C217.465 171.6 226.521 162.695 226.521 151.612C226.521 140.529 217.465 131.568 206.436 131.637C195.519 131.705 186.719 140.611 186.719 151.491C186.719 162.371 195.519 171.331 206.436 171.465Z" fill="#878787"/>
<path d="M188.304 151.495C188.304 161.517 196.385 169.734 206.437 169.85C216.584 169.967 224.881 161.799 224.881 151.605C224.881 141.412 216.584 133.194 206.437 133.249C196.385 133.304 188.304 141.473 188.304 151.495Z" fill="white"/>
<path d="M213.062 168.657C220.846 167.487 222.57 166.635 223.368 165.049C224.528 162.745 223.684 158.992 221.7 156.674C219.962 154.643 217.797 154.236 217.86 152.836C217.912 151.684 219.396 151.541 220.487 149.376C220.805 148.745 221.423 147.518 221.154 146.039C220.76 143.873 218.752 142.738 218.589 142.649C216.491 141.504 215.296 142.824 213.717 141.798C211.744 140.515 212.638 137.814 210.79 137.037C209.445 136.472 207.728 137.379 207.28 137.616C205.787 138.404 205.944 139.2 204.684 139.689C203.207 140.263 202.502 139.359 200.787 139.724C199.372 140.026 198.348 141.008 197.513 141.995C195.637 144.213 196.569 145.531 195.184 148.265C193.236 152.11 190.299 151.658 189.778 154.74C189.506 156.352 190.205 157.087 189.668 159.555C189.306 161.221 188.85 161.516 188.769 162.497C188.537 165.317 191.895 167.822 192.522 168.263C196.518 171.073 202.059 170.31 213.062 168.657Z" fill="#646464"/>
<path style="mix-blend-mode:multiply" opacity="0.3" d="M200.535 161.103C205.714 160.769 209.222 165.483 210.615 164.329C211.936 163.235 208.208 159.479 209.481 155.127C210.731 150.853 215.64 149.975 215.252 147.559C214.813 144.826 208.237 144.117 208.391 142.107C208.482 140.921 210.805 140.666 211.27 138.781C211.384 138.288 211.367 137.773 211.222 137.288C212.501 138.285 211.92 140.629 213.717 141.797C215.296 142.823 216.491 141.504 218.589 142.648C218.752 142.737 220.76 143.873 221.154 146.038C221.423 147.518 220.805 148.744 220.487 149.376C219.396 151.54 217.912 151.683 217.86 152.835C217.796 154.235 219.962 154.643 221.7 156.673C223.684 158.992 224.528 162.745 223.368 165.049C222.57 166.635 220.846 167.487 213.062 168.656C202.059 170.309 196.518 171.072 192.522 168.263C190.975 167.175 189.152 165.326 188.761 163.691C189.541 164.393 190.307 164.738 191.021 164.871C194.348 165.492 195.887 161.403 200.535 161.103Z" fill="url(#paint0_linear_106_3905)"/>
<path d="M219.363 169.464C220.421 167.893 219.776 165.418 219.64 164.897C219.11 162.862 217.861 161.596 217.406 161.146C214.286 158.062 209.54 158.063 205.958 158.063C202.397 158.063 200.411 158.063 198.25 159.279C194.361 161.468 191.695 166.59 193.249 169.132C194.218 170.716 196.1 170.116 207.35 170.642C214.707 170.985 218.038 171.433 219.363 169.464Z" fill="#D5E3EC"/>
<path d="M207.838 152.015C207.838 152.015 207.083 157.427 210.912 158.524C211.013 158.553 211.104 158.608 211.177 158.683C211.249 158.759 211.3 158.852 211.325 158.954C211.35 159.055 211.347 159.161 211.317 159.261C211.288 159.362 211.232 159.452 211.156 159.524L206.435 163.923C206.367 163.986 206.286 164.035 206.199 164.066C206.112 164.098 206.019 164.112 205.926 164.108C205.833 164.103 205.742 164.08 205.658 164.04C205.574 164 205.499 163.943 205.437 163.874L201.175 159.121C201.11 159.05 201.064 158.964 201.041 158.871C201.017 158.778 201.017 158.68 201.04 158.587C201.063 158.494 201.109 158.407 201.173 158.336C201.237 158.264 201.318 158.209 201.408 158.176C202.775 157.68 205.225 156.227 204.711 152.265L207.838 152.015Z" fill="#EC9795"/>
<path d="M210.187 149.013C210.186 149.072 209.154 154.359 206.507 154.347C204.007 154.336 203.058 150.449 202.749 148.635C202.716 148.327 202.684 148.018 202.651 147.71C203.005 147.827 203.386 147.839 203.746 147.743C203.861 147.712 204.586 147.516 204.855 146.917C205.155 146.25 204.604 145.719 204.918 145.135C205.1 144.797 205.468 144.639 205.748 144.558C205.561 144.832 205.199 145.443 205.404 145.999C205.541 146.373 205.927 146.731 206.787 146.95C209.249 147.576 210.211 147.814 210.187 149.013Z" fill="#FC9F9D"/>
<path d="M209.538 149.644C209.538 149.644 210.905 148.492 211.024 149.199C211.273 150.674 210.103 151.484 209.469 151.042C208.835 150.6 209.538 149.644 209.538 149.644Z" fill="#FC9F9D"/>
<path d="M203.535 149.631C203.535 149.631 202.177 148.478 202.059 149.182C201.812 150.649 202.973 151.462 203.604 151.025C204.234 150.588 203.535 149.631 203.535 149.631Z" fill="#FC9F9D"/>
<g style="mix-blend-mode:multiply" opacity="0.3">
<g style="mix-blend-mode:multiply" opacity="0.3">
<path d="M94.292 180.018L223.621 182.234C230.546 182.352 236.213 176.841 236.213 169.948V133.604C236.212 131.321 235.576 129.084 234.378 127.139C233.179 125.195 231.464 123.621 229.422 122.591C228.994 122.878 228.569 123.173 228.152 123.479C228.062 123.545 227.971 123.613 227.881 123.682C223.864 126.68 220.461 130.558 218.448 135.577C218.242 136.097 218.046 136.627 217.87 137.174C217.867 137.182 217.864 137.191 217.862 137.199C216.901 140.153 215.87 142.948 214.732 145.566C211.19 153.694 206.611 160.052 199.819 163.874C198.377 164.684 196.867 165.367 195.307 165.916C194.724 166.121 194.127 166.313 193.516 166.486C186.927 168.376 178.694 168.446 168.23 166.299C167.457 166.141 166.696 165.983 165.93 165.827C165.5 165.739 165.074 165.653 164.645 165.567C159.847 164.597 155.157 163.695 150.56 163.017C150.242 162.973 149.921 162.925 149.602 162.881C148.217 162.686 146.844 162.515 145.476 162.37C144.444 162.26 143.417 162.164 142.395 162.084C142.178 162.069 141.96 162.052 141.743 162.039C140.653 161.963 139.57 161.904 138.494 161.872C137.808 161.851 137.124 161.838 136.442 161.832C134.712 161.824 132.991 161.872 131.282 161.991C129.374 162.123 127.48 162.34 125.596 162.661C124.817 162.792 124.04 162.94 123.264 163.107C113.935 165.11 104.841 169.708 95.7975 178.513C95.3139 178.985 94.8282 179.466 94.3452 179.963C94.3282 179.98 94.3088 179.998 94.292 180.018Z" fill="#D8DEE8"/>
</g>
</g>
<path d="M55.0982 274.71V308.039C55.0982 314.36 59.8878 319.92 65.8057 320.436L223.619 334.188C230.544 334.792 236.211 329.677 236.211 322.784V286.44C236.211 281.631 233.45 277.278 229.42 274.952C227.651 273.922 225.664 273.321 223.619 273.196L65.8057 263.878C59.8878 263.529 55.0982 268.389 55.0982 274.71Z" fill="#D8DEE8"/>
<path d="M57.4698 274.555C57.4698 269.046 61.5463 264.823 66.7044 265.131L223.968 274.51C229.996 274.869 234.918 280.024 234.918 286.02V321.725C234.918 327.722 229.948 332.156 223.921 331.638L66.7314 318.126C61.5732 317.683 57.4699 312.864 57.4699 307.355L57.4698 274.555Z" fill="white"/>
<path d="M168.479 292.252L165.364 298.064L158.464 298.436C157.724 298.476 157.428 299.331 157.964 299.884L162.943 305.032L161.763 311.562C161.636 312.267 162.415 312.892 163.083 312.62L169.305 310.085L175.601 313.872C176.285 314.284 177.087 313.809 176.956 313.069L175.744 306.221L180.894 301.911C181.453 301.443 181.145 300.514 180.372 300.341L173.276 298.744L170.132 292.385C169.794 291.7 168.817 291.622 168.479 292.252Z" fill="#EE6E23"/>
<path d="M142.597 290.175L139.632 295.851L133.062 296.228C132.357 296.268 132.076 297.104 132.586 297.643L137.327 302.655L136.204 309.029C136.082 309.717 136.824 310.325 137.46 310.058L143.383 307.57L149.374 311.25C150.025 311.65 150.788 311.185 150.663 310.463L149.511 303.786L154.41 299.571C154.942 299.114 154.648 298.209 153.914 298.041L147.162 296.499L144.17 290.301C143.848 289.634 142.918 289.559 142.597 290.175Z" fill="#EE6E23"/>
<path d="M117.946 288.194L115.12 293.741L108.858 294.122C108.186 294.163 107.918 294.98 108.404 295.505L112.923 300.389L111.853 306.615C111.737 307.286 112.445 307.878 113.051 307.616L118.695 305.174L124.403 308.752C125.024 309.141 125.75 308.685 125.631 307.981L124.534 301.466L129.2 297.343C129.707 296.895 129.427 296.012 128.728 295.85L122.296 294.358L119.445 288.315C119.138 287.664 118.253 287.593 117.946 288.194Z" fill="#EE6E23"/>
<path d="M94.4415 286.306L91.7453 291.729L85.7694 292.114C85.1282 292.155 84.8724 292.954 85.336 293.465L89.6491 298.227L88.6275 304.312C88.5173 304.968 89.1923 305.545 89.7705 305.287L95.156 302.889L100.601 306.37C101.193 306.749 101.885 306.302 101.772 305.615L100.725 299.255L105.175 295.219C105.658 294.78 105.392 293.919 104.724 293.762L98.5904 292.318L95.8715 286.421C95.5787 285.786 94.7336 285.718 94.4415 286.306Z" fill="#EE6E23"/>
<path d="M72.0082 284.506L69.433 289.811L63.7243 290.199C63.1116 290.24 62.8673 291.021 63.3102 291.52L67.4307 296.166L66.4548 302.115C66.3495 302.757 66.9943 303.319 67.5467 303.066L72.6905 300.711L77.8897 304.1C78.4547 304.469 79.1159 304.031 79.0078 303.359L78.0082 297.148L82.2567 293.195C82.7179 292.766 82.4633 291.925 81.8264 291.773L75.9701 290.373L73.3738 284.616C73.0942 283.995 72.2871 283.931 72.0082 284.506Z" fill="#EE6E23"/>
<path d="M97.611 280.08C97.611 281.338 98.6805 282.425 99.8756 282.506L176.737 287.68C178.025 287.767 179.02 286.787 179.02 285.479V284.352C179.02 283.044 178.077 281.909 176.789 281.826L99.821 276.866C98.6259 276.789 97.611 277.739 97.611 278.997V280.08Z" fill="#B3CEE0"/>
<path d="M206.436 322.217C217.465 323.125 226.521 314.853 226.521 303.77C226.521 292.687 217.465 283.093 206.436 282.389C195.519 281.693 186.719 289.983 186.719 300.863C186.719 311.743 195.519 321.319 206.436 322.217Z" fill="url(#paint1_linear_106_3905)"/>
<path d="M188.304 300.977C188.304 310.999 196.385 319.782 206.437 320.602C216.584 321.429 224.881 313.842 224.881 303.649C224.881 293.455 216.584 284.656 206.437 284.002C196.385 283.353 188.304 290.956 188.304 300.977Z" fill="white"/>
<path d="M222.949 321.708C224.295 319.603 222.396 315.824 221.201 314.088C217.726 309.037 211.371 308.394 206.188 307.87C201.121 307.358 196.253 306.865 192.704 310.221C190.392 312.408 188.27 316.576 189.684 319C191.174 321.553 195.322 320.007 205.25 320.785C216.278 321.648 221.271 324.333 222.949 321.708Z" fill="#515356"/>
<path d="M201.404 308.32C201.404 309.259 203.692 310.561 206.521 310.779C209.357 310.997 211.662 310.043 211.662 309.099C211.662 308.156 209.357 308.403 206.521 308.188C203.692 307.974 201.404 307.381 201.404 308.32Z" fill="#B9D2E2"/>
<path d="M208.409 302.281C209.19 302.338 207.387 307.692 210.228 308.661C210.504 308.755 210.549 309.127 210.298 309.244C209.535 309.599 208.106 310.013 205.768 309.834C204.609 309.742 203.499 309.324 202.568 308.63C202.523 308.6 202.487 308.558 202.463 308.51C202.439 308.461 202.428 308.407 202.431 308.354C202.435 308.3 202.452 308.247 202.482 308.202C202.512 308.157 202.553 308.121 202.602 308.097C203.473 307.713 204.683 306.372 204.322 302.123L208.409 302.281Z" fill="#DE8A89"/>
<path d="M210.785 295.869C210.773 295.937 210.537 300.934 209.39 303.355C209.061 304.049 207.431 303.842 206.377 303.678C205.463 303.536 204.031 303.764 203.628 303.103C202.01 300.448 202.284 294.186 202.284 294.186C202.284 294.186 203.113 292.153 206.519 292.443C209.936 292.735 210.785 295.869 210.785 295.869Z" fill="#FC9F9D"/>
<path d="M209.983 298.504C209.983 298.504 210.699 297.723 211.375 297.66C212.051 297.597 212.491 299.376 211.569 300.447C210.647 301.517 209.583 300.498 209.583 300.498L209.983 298.504Z" fill="#FC9F9D"/>
<path d="M203.03 298.009C203.03 298.009 202.319 297.13 201.649 296.972C200.98 296.814 200.544 298.522 201.457 299.719C202.371 300.917 203.428 300.054 203.428 300.054L203.03 298.009Z" fill="#FC9F9D"/>
<path d="M210.543 298.481C210.453 298.64 210.35 298.787 210.28 298.764C209.991 298.668 211.107 295.928 210.079 294.87C209.547 294.323 208.949 294.746 206.776 294.497C204.592 294.247 204.034 293.685 203.376 294.04C202.776 294.363 202.239 295.366 202.684 298.48L202.312 298.367C202.479 297.37 202.297 296.72 202.089 296.304C201.937 296 201.663 295.604 201.684 295.06C201.697 294.723 201.809 294.715 201.828 294.44C201.881 293.632 200.958 293.35 200.914 292.545C200.88 291.926 201.41 291.822 201.313 291.17C201.231 290.616 200.816 290.486 200.882 290.094C200.953 289.671 201.508 289.39 201.898 289.306C202.295 289.219 202.439 289.354 202.672 289.209C203.049 288.973 202.868 288.498 203.141 288.345C203.626 288.071 204.592 289.358 205.217 289.095C205.595 288.936 205.449 288.376 205.784 288.265C206.432 288.05 207.577 289.944 208.039 289.733C208.259 289.632 208.046 289.175 208.356 288.87C208.72 288.512 209.594 288.57 209.992 289.002C210.364 289.405 210.049 289.836 210.442 290.341C210.796 290.795 211.204 290.646 211.603 291.017C212.282 291.649 212.046 292.959 211.961 293.427C211.671 295.036 210.768 295.302 210.971 296.427C211.023 296.714 211.143 297.039 211.057 297.496C210.982 297.866 210.804 298.208 210.543 298.481Z" fill="#393939"/>
<g style="mix-blend-mode:multiply" opacity="0.3">
<path style="mix-blend-mode:multiply" opacity="0.3" d="M202.244 294.39C202.323 293.598 201.708 293.184 201.811 292.623C201.894 292.172 202.409 291.796 202.894 291.741C203.928 291.625 204.598 293.197 205.628 293.102C206.425 293.029 206.336 292.059 207.237 291.733C208.665 291.215 210.164 293.193 211.116 292.739C211.403 292.602 211.692 292.22 211.713 291.132C212.26 291.796 212.045 292.987 211.965 293.428C211.675 295.037 210.772 295.304 210.975 296.428C211.027 296.716 211.147 297.04 211.061 297.498C210.986 297.868 210.808 298.209 210.548 298.483C210.457 298.642 210.354 298.788 210.284 298.765C209.995 298.669 211.111 295.93 210.083 294.872C209.551 294.325 208.953 294.748 206.78 294.499C204.596 294.248 204.038 293.687 203.38 294.042C202.78 294.365 202.243 295.368 202.688 298.481L202.316 298.369C202.483 297.371 202.301 296.721 202.093 296.305C202.031 296.18 201.947 296.039 201.872 295.879C201.889 295.589 201.941 295.303 202.027 295.026C202.138 294.674 202.218 294.644 202.244 294.39Z" fill="url(#paint2_linear_106_3905)"/>
</g>
<g style="mix-blend-mode:multiply" opacity="0.3">
<g style="mix-blend-mode:multiply" opacity="0.3">
<path d="M94.292 322.92L223.621 334.19C230.546 334.793 236.213 329.679 236.213 322.786V286.442C236.213 281.632 233.451 277.279 229.422 274.953C228.994 275.21 228.569 275.476 228.152 275.752C228.062 275.812 227.971 275.874 227.881 275.937C223.864 278.653 220.461 282.292 218.448 287.171C218.242 287.676 218.046 288.193 217.87 288.728C217.867 288.736 217.864 288.744 217.862 288.752C216.901 291.639 215.87 294.362 214.732 296.899C211.19 304.779 206.611 310.817 199.819 314.163C198.371 314.875 196.861 315.453 195.307 315.889C194.724 316.054 194.127 316.204 193.516 316.335C186.927 317.763 178.694 317.256 168.23 314.377C167.457 314.165 166.696 313.953 165.93 313.744C165.5 313.626 165.074 313.51 164.645 313.394C159.847 312.088 155.157 310.857 150.56 309.858C150.242 309.791 149.921 309.722 149.602 309.655C148.217 309.363 146.842 309.096 145.476 308.855C144.444 308.672 143.417 308.505 142.395 308.353C142.178 308.323 141.96 308.29 141.743 308.263C140.653 308.11 139.57 307.976 138.494 307.868C137.808 307.799 137.124 307.738 136.442 307.685C134.712 307.555 132.991 307.483 131.282 307.482C129.384 307.477 127.486 307.568 125.596 307.754C124.817 307.83 124.04 307.924 123.264 308.037C113.935 309.387 104.841 313.348 95.7975 321.52C95.3139 321.958 94.8283 322.405 94.3452 322.868C94.3282 322.885 94.3088 322.901 94.292 322.92Z" fill="#D8DEE8"/>
</g>
</g>
<path d="M55.0982 204.419V237.748C55.0982 244.068 59.8877 249.461 65.8056 249.769L223.619 257.98C230.544 258.34 236.211 253.027 236.211 246.134V209.79C236.211 204.98 233.45 200.724 229.42 198.54C227.638 197.569 225.649 197.036 223.619 196.987L65.8056 193.211C59.8878 193.069 55.0982 198.098 55.0982 204.419Z" fill="#D8DEE8"/>
<path d="M57.4698 204.222C57.4698 198.714 61.5463 194.347 66.7044 194.473L223.968 198.334C229.996 198.482 234.918 203.464 234.918 209.46V245.165C234.918 251.161 229.948 255.77 223.921 255.463L66.7314 247.468C61.5732 247.206 57.4699 242.531 57.4699 237.022L57.4698 204.222Z" fill="white"/>
<path d="M168.479 217.982L165.364 223.903L158.464 224.517C157.724 224.583 157.428 225.449 157.963 225.984L162.943 230.956L161.763 237.528C161.636 238.237 162.415 238.835 163.083 238.539L169.305 235.786L175.601 239.352C176.285 239.74 177.087 239.237 176.956 238.501L175.744 231.695L180.894 227.205C181.453 226.717 181.145 225.8 180.372 225.653L173.276 224.306L170.132 218.057C169.794 217.384 168.817 217.34 168.479 217.982Z" fill="#EE6E23"/>
<path d="M142.597 216.811L139.632 222.591L133.062 223.199C132.357 223.264 132.076 224.109 132.586 224.63L137.327 229.476L136.203 235.89C136.082 236.582 136.824 237.164 137.46 236.875L143.383 234.179L149.374 237.648C150.025 238.025 150.788 237.533 150.663 236.816L149.511 230.179L154.41 225.792C154.942 225.316 154.648 224.422 153.914 224.28L147.162 222.974L144.17 216.882C143.848 216.226 142.918 216.184 142.597 216.811Z" fill="#EE6E23"/>
<path d="M117.946 215.697L115.12 221.343L108.858 221.944C108.186 222.009 107.918 222.835 108.404 223.343L112.923 228.068L111.853 234.332C111.737 235.007 112.445 235.575 113.051 235.291L118.695 232.651L124.403 236.028C125.024 236.395 125.75 235.914 125.631 235.214L124.534 228.738L129.2 224.45C129.707 223.985 129.427 223.112 128.728 222.974L122.296 221.709L119.445 215.765C119.138 215.125 118.252 215.085 117.946 215.697Z" fill="#EE6E23"/>
<path d="M94.4415 214.635L91.7453 220.153L85.7694 220.748C85.1282 220.811 84.8724 221.619 85.3361 222.114L89.6492 226.725L88.6276 232.845C88.5173 233.505 89.1923 234.058 89.7706 233.78L95.156 231.193L100.601 234.483C100.728 234.566 100.876 234.609 101.028 234.607C101.18 234.606 101.327 234.559 101.452 234.474C101.578 234.389 101.675 234.269 101.732 234.128C101.788 233.988 101.803 233.834 101.772 233.686L100.725 227.364L105.175 223.171C105.658 222.716 105.392 221.864 104.724 221.73L98.5904 220.502L95.8715 214.7C95.5787 214.075 94.7336 214.037 94.4415 214.635Z" fill="#EE6E23"/>
<path d="M72.0082 213.621L69.433 219.017L63.7243 219.605C63.1116 219.668 62.8673 220.457 63.3102 220.941L67.4307 225.442L66.4548 231.425C66.3495 232.071 66.9943 232.61 67.5467 232.338L72.6905 229.802L77.8897 233.009C78.4547 233.358 79.1159 232.897 79.0078 232.229L78.0082 226.052L82.2567 221.95C82.7179 221.505 82.4633 220.673 81.8264 220.543L75.9701 219.35L73.3738 213.683C73.0942 213.072 72.2871 213.037 72.0082 213.621Z" fill="#EE6E23"/>
<path d="M97.611 207.819C97.611 209.076 98.6805 210.128 99.8756 210.166L176.737 212.619C178.025 212.66 179.02 211.64 179.02 210.332V209.205C179.02 207.897 178.077 206.802 176.789 206.765L99.821 204.525C98.6259 204.491 97.611 205.478 97.611 206.735V207.819Z" fill="#B3CEE0"/>
<path d="M206.436 246.611C217.465 247.132 226.521 238.542 226.521 227.459C226.521 216.376 217.465 207.1 206.436 206.784C195.519 206.471 186.719 215.07 186.719 225.95C186.719 236.83 195.519 246.096 206.436 246.611Z" fill="#878787"/>
<path d="M188.304 226.009C188.304 236.031 196.385 244.531 206.437 244.997C216.584 245.468 224.881 237.59 224.881 227.396C224.881 217.203 216.584 208.695 206.437 208.397C196.385 208.101 188.304 215.988 188.304 226.009Z" fill="white"/>
<path d="M205.303 245.37C216.7 245.989 220.724 247.683 222.552 245.29C224.237 243.083 222.841 239.001 220.833 236.615C217.667 232.852 212.602 232.469 205.713 231.999C199.273 231.559 195.324 231.289 192.216 233.933C189.319 236.398 187.473 241.122 189.273 243.687C190.947 246.071 194.533 244.785 205.303 245.37Z" fill="url(#paint3_linear_106_3905)"/>
<path d="M209.509 232.14L210.843 232.535C210.918 232.557 210.988 232.596 211.047 232.649C211.105 232.702 211.15 232.768 211.178 232.841C211.207 232.915 211.218 232.994 211.211 233.072C211.203 233.151 211.178 233.226 211.137 233.293C210.228 234.67 207.826 238.117 206.325 238.469C204.775 238.832 201.886 234.225 200.926 232.608C200.886 232.546 200.862 232.475 200.854 232.401C200.847 232.328 200.857 232.253 200.883 232.184C200.909 232.115 200.951 232.053 201.005 232.003C201.06 231.952 201.125 231.915 201.196 231.894L202.166 231.624C202.968 231.402 203.805 231.339 204.63 231.441L208.263 231.882C208.685 231.933 209.102 232.019 209.509 232.14Z" fill="#4F4F4F"/>
<path d="M208.521 226.932C208.521 226.932 207.789 232.165 208.801 232.709L205.924 235.726L203.017 231.896C203.017 231.896 204.115 231.112 203.826 226.754L208.521 226.932Z" fill="#E99594"/>
<path d="M210.222 219.458C210.326 219.603 211.681 226.29 206.999 226.807C202.338 227.322 202.133 222.428 202.192 220.357C202.252 218.286 204.381 217.605 205.602 217.501C206.824 217.397 209.852 218.946 210.222 219.458Z" fill="#FC9F9D"/>
<path d="M210.494 223.343C210.494 223.343 210.729 222.267 211.532 222.972C212.336 223.678 211.058 225.427 210.004 225.314L210.494 223.343Z" fill="#FC9F9D"/>
<path d="M202.336 222.295C202.47 222.39 202.854 224.942 202.854 224.942C202.854 224.942 202.182 224.996 201.696 224.067C201.21 223.139 200.977 221.325 202.336 222.295Z" fill="#FC9F9D"/>
<path d="M200.508 217.386C200.997 216.588 202.234 217.015 202.595 216.241C202.899 215.591 202.186 214.946 202.568 214.388C202.889 213.921 203.672 213.958 203.811 213.964C204.87 214.014 205.113 214.863 205.869 214.868C206.793 214.875 206.829 213.612 208.052 213.118C209.241 212.638 210.98 213.114 211.683 214.107C212.23 214.88 211.765 215.419 212.483 216.413C212.977 217.096 213.413 217.14 213.659 217.802C213.889 218.423 213.733 219.002 213.611 219.432C213.319 220.462 212.774 220.902 211.951 221.979C211.433 222.659 210.967 223.376 210.557 224.126C210.235 224.973 209.962 225.837 209.738 226.715C209.475 227.74 209.491 227.95 209.246 228.275C208.4 229.398 206.473 229.211 205.663 229.132C204.735 229.042 203.582 228.93 203.002 228.101C202.688 227.653 202.728 227.261 202.655 226.205C202.582 225.165 202.448 224.13 202.253 223.106C202.158 222.657 202.032 222.215 201.875 221.784C201.538 220.871 201.188 220.715 200.808 219.77C200.503 219.013 200.11 218.035 200.508 217.386ZM204.361 224.56C204.934 224.736 205.32 224.611 206.098 224.595C207.655 224.563 208.147 225.311 208.883 225.018C209.191 224.895 209.901 224.547 210.051 223.834C210.166 223.229 210.182 222.609 210.1 221.998C209.977 221.094 209.837 220.051 209.115 219.567C208.07 218.865 206.736 219.964 205.779 219.189C205.414 218.893 205.267 218.457 205.2 218.126C204.988 218.192 203.301 218.749 202.681 220.53C202.395 221.389 202.403 222.318 202.704 223.172C203.053 223.713 203.586 224.322 204.361 224.56Z" fill="#8E8E8E"/>
<path d="M207.588 225.774C206.754 226.004 205.868 225.945 205.072 225.609C204.967 225.565 204.877 225.676 204.965 225.742C205.326 226.013 205.854 226.307 206.429 226.286C206.867 226.259 207.293 226.135 207.677 225.923C207.773 225.872 207.697 225.744 207.588 225.774Z" fill="url(#paint4_linear_106_3905)"/>
<g style="mix-blend-mode:multiply" opacity="0.3">
<g style="mix-blend-mode:multiply" opacity="0.3">
<path d="M94.292 251.252L223.621 257.981C230.546 258.342 236.213 253.028 236.213 246.136V209.791C236.213 204.982 233.451 200.726 229.422 198.541C228.994 198.813 228.569 199.093 228.152 199.384C228.062 199.447 227.971 199.513 227.881 199.579C223.864 202.436 220.461 206.195 218.448 211.144C218.242 211.657 218.046 212.181 217.87 212.721C217.867 212.729 217.864 212.737 217.862 212.745C216.901 215.666 215.87 218.426 214.732 221.003C211.19 229.007 206.611 235.206 199.819 238.791C198.374 239.552 196.864 240.183 195.307 240.675C194.724 240.86 194.127 241.032 193.516 241.183C186.927 242.843 178.694 242.625 168.23 240.114C167.457 239.928 166.696 239.744 165.93 239.562C165.5 239.458 165.074 239.357 164.645 239.256C159.847 238.119 155.157 237.053 150.56 236.215C150.242 236.159 149.921 236.101 149.602 236.045C148.217 235.802 146.842 235.584 145.476 235.391C144.444 235.244 143.417 235.113 142.395 234.997C142.178 234.974 141.96 234.949 141.743 234.929C140.653 234.815 139.57 234.719 138.494 234.649C137.808 234.604 137.124 234.567 136.442 234.537C134.712 234.468 132.991 234.457 131.282 234.516C129.38 234.578 127.482 234.735 125.596 234.988C124.817 235.091 124.04 235.212 123.264 235.352C113.935 237.03 104.841 241.311 95.7975 249.8C95.3139 250.255 94.8283 250.719 94.3452 251.199C94.3282 251.216 94.3088 251.233 94.292 251.252Z" fill="#D8DEE8"/>
</g>
</g>
<defs>
<linearGradient id="paint0_linear_106_3905" x1="-38652.9" y1="23786.1" x2="-35835.8" y2="29686.7" gradientUnits="userSpaceOnUse">
<stop stop-color="#40447E"/>
<stop offset="0.9964" stop-color="#3C3B6B"/>
</linearGradient>
<linearGradient id="paint1_linear_106_3905" x1="-40567.8" y1="87364.4" x2="-28101.1" y2="145276" gradientUnits="userSpaceOnUse">
<stop stop-color="#878787"/>
<stop offset="1" stop-color="#FB6FBB"/>
</linearGradient>
<linearGradient id="paint2_linear_106_3905" x1="-9908.4" y1="17627.2" x2="-10090" y2="16869.3" gradientUnits="userSpaceOnUse">
<stop stop-color="#311944"/>
<stop offset="1" stop-color="#6B3976"/>
</linearGradient>
<linearGradient id="paint3_linear_106_3905" x1="-38529.1" y1="22752" x2="-37263.8" y2="28593.2" gradientUnits="userSpaceOnUse">
<stop stop-color="#F9CE9C"/>
<stop offset="1" stop-color="#FB6FBB"/>
</linearGradient>
<linearGradient id="paint4_linear_106_3905" x1="-2596.48" y1="1264.23" x2="-2594.93" y2="1318.33" gradientUnits="userSpaceOnUse">
<stop stop-color="#FC9F9D"/>
<stop offset="0.9964" stop-color="#F36F56"/>
</linearGradient>
</defs>
</svg>
